<svg width="143" height="42" viewBox="0 0 143 42" fill="none" xmlns="http://www.w3.org/2000/svg">
<path d="M32.6 15.525C30.575 15.725 28.55 15.975 26.55 16.25C27.9 12.875 29.4 9.55 31.025 6.3C31.475 5.4 29.375 3.6 28.825 4.675C26.875 8.6 25.1 12.6 23.525 16.675C20.45 17.125 17.4 17.625 14.35 18.2C15.55 15.325 16.8 12.45 18.15 9.625C18.575 8.725 16.475 6.925 15.95 8.025C14.25 11.575 12.7 15.175 11.25 18.8C8.025 19.475 4.8 20.175 1.575 20.975C0.5 21.25 2.2 23.425 3.2 23.175C5.525 22.6 7.85 22.075 10.175 21.575C8.375 26.375 6.775 31.25 5.4 36.2C5.2 36.975 6.8 38.85 7.5 38C8.1 37.325 8.5 36.575 8.775 35.7C8.85 35.425 8.725 35.075 8.5 34.725C9.9 30.075 11.475 25.475 13.25 20.95C16.35 20.325 19.425 19.775 22.55 19.275C21.275 22.75 20.125 26.275 19.125 29.825C18.85 30.825 21.025 32.55 21.35 31.45C22.525 27.175 23.925 22.975 25.525 18.825C28.25 18.425 31 18.075 33.75 17.8C35.15 17.65 33.6 15.4 32.6 15.525ZM39.4691 24.65C36.9441 26.6 30.7691 29.65 28.2191 29.975C28.3191 29.65 28.4191 29.325 28.5441 29.025C28.5691 29.025 28.5691 29.025 28.5691 29C30.0941 28.275 35.7941 26.075 33.3691 23.55C31.6941 21.775 29.4441 23.35 28.1691 24.75C26.7691 26.275 24.7691 29.3 26.3191 31.375C27.3191 32.7 28.7691 32.625 30.1691 32.1C34.0191 30.75 37.5691 28.2 40.9441 26C41.7691 25.475 40.3691 23.95 39.4691 24.65ZM49.4967 24.775C48.3217 26.05 44.1467 28.275 40.9967 28.725C40.8467 27.15 42.0217 24.8 42.3967 23.675C43.1467 21.4 43.9467 19.15 44.7467 16.9C46.3967 12.325 48.1717 7.775 50.0717 3.3C50.4467 2.35 48.3217 0.574999 47.8467 1.675C46.1467 5.775 44.4967 9.925 42.9717 14.125C42.2217 16.125 41.5217 18.15 40.8217 20.175C40.1467 22.125 39.3467 24.075 38.9217 26.075C38.6217 27.575 38.7467 29.025 39.7717 30.225C40.7217 31.375 41.9967 31.15 43.2967 30.75C46.0467 29.9 48.8467 28.075 50.7967 25.975C51.5217 25.175 50.2217 23.975 49.4967 24.775ZM57.4326 24.725C55.4326 26.4 51.3326 28.6 49.6076 28.925C49.6576 28.725 49.7326 28.55 49.8076 28.375C50.3076 27 50.9576 25.775 51.6826 24.5C52.1826 23.65 50.0826 21.825 49.4826 22.9C48.5576 24.475 47.1326 26.65 47.1826 28.525C47.2076 30.2 48.8076 31.75 50.4576 31.4C51.9326 31.1 53.3076 30.1 54.5326 29.3C56.0326 28.275 57.4826 27.15 58.8576 25.975C59.6576 25.3 58.2826 24 57.4326 24.725ZM53.7826 20.25C54.3326 18.425 55.0826 16.675 56.0076 14.975C56.4826 14.125 54.3826 12.3 53.7826 13.375C52.8576 15.05 52.1326 16.8 51.5826 18.625C51.2826 19.625 53.4576 21.35 53.7826 20.25ZM73.7643 24.55C72.1643 26 67.6393 29.4 65.0643 29.7C65.0393 29.7 65.0143 29.7 64.9643 29.7C65.0893 29.05 65.2143 28.425 65.4393 27.775C65.6643 27.125 65.8893 26.5 65.9893 25.825C66.0393 25.7 66.0393 25.575 66.0143 25.425C65.9893 24.975 65.5143 24.45 65.0143 24.1C64.7143 23.875 64.3643 23.75 64.0643 23.825C63.8143 23.9 63.5893 23.975 63.3643 24.05C62.1393 22.475 59.9643 22.15 58.2893 23.425C56.1393 25 54.7643 27.625 54.1893 30.175C54.0143 31 55.2143 32.45 56.1143 32.1C58.6893 31.075 60.5893 28.85 62.8643 27.35C62.6393 28.075 62.5393 28.8 62.7893 29.6C63.1393 30.8 64.2143 31.85 65.4893 32C66.7643 32.15 68.0143 31.475 69.0393 30.85C71.3143 29.5 73.3393 27.725 75.2893 25.975C76.0643 25.25 74.5893 23.8 73.7643 24.55ZM58.3393 27.4C58.3643 27.375 58.3643 27.35 58.3893 27.325C58.8393 26.725 59.3643 26.15 59.9393 25.675C60.2893 25.35 60.7143 25.025 61.1893 24.925C61.3393 24.9 61.5143 24.875 61.6893 24.825C61.6893 24.85 61.6893 24.85 61.7143 24.85C60.5143 25.575 59.4393 26.5 58.3393 27.4ZM91.1229 24.475C88.1979 25.85 84.9729 27.2 81.9979 28.675C82.6229 27.425 83.2479 26.2 83.9979 25C84.5479 24.1 83.1479 22.6 82.1979 22.9C79.9479 23.6 77.8479 24.625 75.9229 25.95C75.9479 25.9 75.9729 25.85 76.0229 25.775C76.4979 24.925 74.3979 23.1 73.7979 24.175C72.6979 26.125 71.6479 28.225 71.0979 30.4C70.8979 31.175 72.4729 33.075 73.1979 32.2C75.0229 30.025 77.1729 28.25 79.6229 26.9C79.1979 27.725 78.8479 28.575 78.7229 29.425C78.4979 30.9 79.8729 32.3 81.3729 31.95C82.8729 31.6 84.2979 30.475 85.5979 29.675C87.6729 28.375 89.7479 27.1 91.9729 26.05C93.0479 25.55 92.0479 24.05 91.1229 24.475ZM112.559 13.6C108.559 11.5 103.534 11.45 99.0086 11.525C99.6836 10.1 100.334 8.7 101.009 7.325C101.434 6.425 99.3336 4.625 98.8086 5.7C97.8586 7.65 96.9336 9.6 96.0336 11.575C91.0336 11.725 86.0586 12.275 81.1586 13.225C80.1086 13.425 81.7586 15.625 82.7836 15.425C86.8086 14.65 90.8836 14.15 94.9836 13.925C91.5336 21.825 88.7836 30.05 88.9336 38.75C88.9586 39.725 91.2336 41.275 91.2086 39.9C91.0586 30.725 94.2086 22.1 97.9586 13.825C97.9836 13.825 98.0336 13.825 98.0836 13.825C100.509 13.775 102.959 13.825 105.409 14C107.884 14.15 110.384 14.4 112.609 15.575C113.084 15.825 113.659 15.775 113.709 15.175C113.784 14.525 113.059 13.875 112.559 13.6ZM117.117 24.475C114.667 25.85 111.667 27.15 108.892 28C109.192 27.075 109.642 26.175 109.842 25.225C110.092 24.025 110.042 22.8 109.092 21.9C107.892 20.775 106.767 21.325 105.517 22.05C102.992 23.525 100.642 25.25 98.4918 27.225C98.8168 26.3 99.1668 25.375 99.5168 24.475C100.317 22.375 101.217 20.325 102.167 18.325C104.092 14.275 106.292 10.4 108.792 6.675C109.392 5.725 107.342 3.85 106.792 4.675C103.867 9.1 101.267 13.75 99.0918 18.6C98.0168 20.975 97.0668 23.4 96.1918 25.875C95.4918 27.9 95.2168 29.725 97.0668 31.175C97.3418 31.4 98.0168 31.725 98.3418 31.375C100.967 28.45 104.092 25.95 107.542 24.025C107.367 24.625 107.142 25.175 106.917 25.75C106.642 26.55 106.317 27.425 106.392 28.3C106.567 30.175 108.417 30.925 110.017 30.4C112.867 29.45 115.542 27.55 118.117 26.075C119.192 25.475 117.967 23.975 117.117 24.475ZM132.359 24.575C130.984 26 128.084 28.475 126.309 28.875C126.334 28.75 126.359 28.625 126.384 28.525C126.684 27.25 127.034 26 127.434 24.75C127.684 23.925 126.134 22.225 125.334 22.95C123.384 24.7 121.509 26.575 119.434 28.2C118.809 28.675 118.159 29.175 117.459 29.55C117.559 29.175 117.709 28.8 117.859 28.45C118.234 27.6 118.659 26.725 119.284 26C119.984 25.175 117.984 23.225 117.309 24.025C115.934 25.625 113.984 29.125 115.509 31.15C116.634 32.65 118.184 32.3 119.609 31.45C121.159 30.5 122.584 29.325 123.934 28.075C123.934 28.125 123.909 28.175 123.909 28.25C123.734 29.5 124.034 30.7 125.209 31.4C126.284 32.05 127.309 31.525 128.259 30.875C130.284 29.55 132.009 27.7 133.684 25.975C134.434 25.2 133.109 23.8 132.359 24.575ZM140.345 24.3C139.445 24.65 137.395 25.2 135.27 26.2C135.045 25.975 134.845 25.75 134.645 25.5C134.12 24.875 133.72 23.3 135.095 23.4C135.745 23.45 135.695 22.7 135.495 22.3C135.22 21.725 134.595 21.175 133.945 21.15C131.795 20.975 131.495 23.375 132.245 24.9C132.695 25.775 133.445 26.375 134.02 27.125C131.645 29.05 129.995 31.45 132.32 33.375C134.495 35.175 136.57 32.5 136.845 30.425C136.945 29.775 136.895 29.15 136.695 28.55C138.045 27.525 139.52 26.7 141.095 26.075C142.195 25.65 141.32 23.925 140.345 24.3Z" fill="#A79797"/>
</svg>
